<svg xmlns="http://www.w3.org/2000/svg">
  <symbol id="svg-rule"  viewBox="0 0 44 44">
    <title>查看规则</title>
    <g>
    <rect width="44" height="44" rx="10" ry="10" class="cls-1" style="fill: #ffb726;"/>
    <path d="M30.174,33.998 L14.826,33.998 C13.817,33.998 12.999,33.131 12.999,32.061 L12.999,11.937 C12.999,10.866 13.817,9.998 14.826,9.998 L25.618,9.998 L25.618,13.666 C25.618,15.422 26.965,16.852 28.620,16.852 L32.000,16.852 L32.000,32.061 C32.000,33.131 31.182,33.998 30.174,33.998 ZM28.986,20.069 L16.013,20.069 L16.013,21.368 L28.986,21.368 L28.986,20.069 ZM28.986,24.226 L16.013,24.226 L16.013,25.525 L28.986,25.525 L28.986,24.226 ZM28.986,28.383 L16.013,28.383 L16.013,29.682 L28.986,29.682 L28.986,28.383 ZM26.793,13.666 L26.793,9.998 L32.000,15.604 L28.620,15.604 C27.611,15.604 26.793,14.737 26.793,13.666 Z" class="cls-2" style="fill: #fff;fill-rule: evenodd;"/>
  </g>
  </symbol>
</svg>
