<svg xmlns="http://www.w3.org/2000/svg">
  <symbol id="svg-github"  viewBox="0 0 1024 1024">
    <title>github</title>
    <path style="fill-rule: evenodd;" d="M941.714 512q0 143.433-83.712 258.011t-216.283 158.574q-15.433 2.853-22.565-3.986t-7.131-17.152v-120.576q0-55.442-29.696-81.152 32.585-3.438 58.587-10.277t53.723-22.272 46.299-37.998 30.281-60.014 11.703-86.016q0-69.157-45.129-117.723 21.138-52.005-4.571-116.553-16.018-5.157-46.299 6.29t-52.553 25.161l-21.723 13.714q-53.138-14.848-109.714-14.848t-109.714 14.848q-9.143-6.29-24.283-15.433t-47.726-22.016-49.152-7.717q-25.161 64.585-3.986 116.553-45.129 48.567-45.129 117.723 0 48.567 11.703 85.723t29.989 60.014 46.007 38.29 53.723 22.272 58.587 10.277q-22.857 20.553-28.014 58.843-11.995 5.705-25.71 8.558t-32.585 2.853-37.413-12.288-31.707-35.73q-10.862-18.286-27.721-29.696t-28.27-13.714l-11.447-1.719q-11.995 0-16.567 2.56t-2.853 6.583 5.157 8.009 7.424 6.839l3.986 2.853q12.581 5.705 24.869 21.723t17.993 29.147l5.705 13.129q7.424 21.723 25.161 35.145t38.29 17.152 39.717 3.986 31.707-2.011l13.129-2.304q0 21.723 0.293 50.871t0.293 30.866q0 10.277-7.424 17.152t-22.857 3.986q-132.571-43.995-216.283-158.574t-83.712-258.011q0-119.442 58.843-220.27t159.707-159.707 220.27-58.843 220.27 58.843 159.707 159.707 58.843 220.27z" p-id="3347" />
  </symbol>
  <symbol id="svg-qq"  viewBox="0 0 1024 1024">
    <title>QQ</title>
    <path d="M511.999998 0C229.232866 0 0.021487 229.220588 0.021487 512s229.211379 512 511.978511 512 511.978511-229.220588 511.978511-512S794.76713 0 511.999998 0zM793.886063 671.573345c-13.223163 12.342096-35.924187-1.102101-57.744145-31.296797-9.476839 25.566282-21.818935 49.149397-36.144198 70.309322 30.854728 11.019984 50.691519 28.211529 50.691519 47.608298 0 33.500998-59.287291 60.611449-132.457778 60.611449-43.417859 0-81.767282-9.476839-106.010429-24.24417-24.023136 14.767332-62.59257 24.24417-106.010429 24.24417-73.17151 0-132.457778-27.109428-132.457778-60.611449 0-19.174712 19.835767-36.586267 50.691519-47.608298-14.546298-21.158902-26.66736-44.742017-36.144198-70.309322-21.818935 29.974685-44.518936 43.639916-57.744145 31.296797-18.072611-16.97051-11.239995-76.921927 15.647375-133.785006 6.170536-13.004175 12.783141-24.685215 19.614733-34.82311 3.746324-165.30386 112.62201-297.986765 246.180865-297.986765l0.441045 0c133.558855 0 242.434541 132.462894 246.180865 297.986765 6.832615 10.138918 13.444197 21.819958 19.614733 34.82311C804.906048 594.652442 811.958674 654.602835 793.886063 671.573345z" p-id="7648" />
  </symbol>
  <symbol id="svg-exit"  viewBox="0 0 1024 1024">
    <title>退出</title>
    <path style="fill-rule: evenodd;" d="M295.32 242.302c-25.313 18-47.813 38.392-67.498 61.168-19.689 22.783-36.561 47.39-50.622 73.826-14.063 26.437-24.751 54.421-32.063 83.951-7.311 29.529-10.967 59.481-10.967 89.854 0 52.31 9.983 101.385 29.95 147.229 19.968 45.841 46.967 85.777 80.997 119.804 34.033 34.034 73.968 61.030 119.808 80.998 45.84 19.968 94.918 29.953 147.224 29.953 51.749 0 100.546-9.985 146.387-29.953 45.845-19.968 85.919-46.966 120.229-80.998 34.313-34.027 61.311-73.965 80.997-119.804 19.688-45.845 29.53-94.918 29.53-147.231 0-29.807-3.514-59.058-10.547-87.743s-17.014-55.966-29.949-81.842c-12.94-25.872-28.972-50.059-48.094-72.556-19.123-22.502-40.496-42.752-64.123-60.75-12.374-9-25.732-12.374-40.077-10.126-14.339 2.254-26.012 9.282-35.013 21.093-9.002 11.816-12.375 25.032-10.127 39.656 2.255 14.625 9.282 26.437 21.093 35.437 35.437 25.872 62.578 57.65 81.423 95.337 18.838 37.687 28.26 78.184 28.26 121.493 0 37.123-7.028 72.141-21.093 105.045-14.061 32.904-33.323 61.588-57.789 86.056-24.472 24.473-53.157 43.877-86.062 58.219s-67.916 21.512-105.045 21.512c-37.12 0-72.133-7.17-105.039-21.512s-61.595-33.746-86.061-58.219c-24.466-24.467-43.87-53.151-58.213-86.056-14.347-32.905-21.515-67.923-21.514-105.045 0-43.869 10.122-85.355 30.37-124.447 20.25-39.092 48.655-71.29 85.215-96.602 12.373-8.439 19.828-19.969 22.357-34.594 2.534-14.625-0.419-28.125-8.855-40.501-8.439-11.811-19.97-18.983-34.594-21.512-14.625-2.529-28.118 0.419-40.495 8.857v0zM512.15 553.634c14.627 0 27.142-5.203 37.548-15.607 10.406-10.407 15.609-22.923 15.609-37.549v-320.611c0-14.624-5.203-27.282-15.609-37.967-10.406-10.688-22.92-16.029-37.548-16.029-15.184 0-27.98 5.343-38.386 16.029-10.406 10.687-15.609 23.342-15.609 37.967v320.611c0 14.624 5.203 27.142 15.609 37.549 10.407 10.403 23.202 15.607 38.386 15.607v0z" p-id="5119" />
  </symbol>
</svg>
